<svg xmlns="http://www.w3.org/2000/svg" version="1.1" xmlns:xlink="http://www.w3.org/1999/xlink" xmlns:svgjs="http://svgjs.com/svgjs" width="1440" height="560" preserveAspectRatio="none" viewBox="0 0 1440 560"><g mask="url(&quot;#SvgjsMask1415&quot;)" fill="none"><rect width="156" height="156" clip-path="url(&quot;#SvgjsClipPath1416&quot;)" x="264.73" y="-40.29" fill="url(#SvgjsPattern1417)" transform="rotate(84.12, 342.73, 37.71)"></rect><rect width="216" height="216" clip-path="url(&quot;#SvgjsClipPath1418&quot;)" x="70.4" y="257.68" fill="url(#SvgjsPattern1419)" transform="rotate(3.52, 178.4, 365.68)"></rect><rect width="60" height="60" clip-path="url(&quot;#SvgjsClipPath1420&quot;)" x="1217.34" y="12.86" fill="url(#SvgjsPattern1421)" transform="rotate(15.55, 1247.34, 42.86)"></rect><path d="M444.41 80.94L431.67 79.64 430.14 66.93 417.4 65.63 415.86 52.91 403.12 51.62 401.59 38.9" stroke="rgba(45, 66, 74, 1)" stroke-width="1.01"></path><rect width="88.6" height="88.6" clip-path="url(&quot;#SvgjsClipPath1422&quot;)" x="277.33" y="422.59" fill="url(#SvgjsPattern1423)" transform="rotate(175.98, 321.63, 466.89)"></rect><path d="M489.23 106.99a5.6 5.6 0 1 0-9.97 5.11 5.6 5.6 0 1 0 9.97-5.11zM474.99 114.29a5.6 5.6 0 1 0-9.97 5.11 5.6 5.6 0 1 0 9.97-5.11zM460.75 121.59a5.6 5.6 0 1 0-9.96 5.11 5.6 5.6 0 1 0 9.96-5.11zM446.52 128.89a5.6 5.6 0 1 0-9.97 5.12 5.6 5.6 0 1 0 9.97-5.12z" stroke="rgba(97, 42, 17, 1)" stroke-width="1.75" stroke-dasharray="3, 2"></path><path d="M161.7 49.75L156.36 38.11 166.54 30.35 161.2 18.71 171.38 10.94 166.04-0.7 176.22-8.47" stroke="rgba(95, 100, 104, 1)" stroke-width="2.99" stroke-dasharray="4, 4"></path><rect width="232.96000000000004" height="232.96000000000004" clip-path="url(&quot;#SvgjsClipPath1424&quot;)" x="1271.77" y="92.36" fill="url(#SvgjsPattern1425)" transform="rotate(348.09, 1388.25, 208.84)"></rect><rect width="139.8" height="139.8" clip-path="url(&quot;#SvgjsClipPath1426&quot;)" x="-30.6" y="342.1" fill="url(#SvgjsPattern1427)" transform="rotate(289.81, 39.3, 412)"></rect><rect width="288" height="288" clip-path="url(&quot;#SvgjsClipPath1428&quot;)" x="6.1" y="15.95" fill="url(#SvgjsPattern1429)" transform="rotate(0.14, 150.1, 159.95)"></rect><path d="M1365.26 455.41L1361.74 443.1 1372.98 436.96 1369.45 424.65 1380.69 418.51 1377.17 406.2 1388.41 400.06" stroke="rgba(45, 66, 74, 1)" stroke-width="2.58" stroke-dasharray="3, 2"></path><circle r="46.666666666666664" cx="1333.76" cy="66.05" fill="rgba(45, 66, 74, 1)"></circle></g><defs><mask id="SvgjsMask1415"><rect width="1440" height="560" fill="#ffffff"></rect></mask><pattern x="0" y="0" width="156" height="6" patternUnits="userSpaceOnUse" id="SvgjsPattern1417"><rect width="156" height="3" x="0" y="0" fill="rgba(45, 66, 74, 1)"></rect><rect width="156" height="3" x="0" y="3" fill="rgba(0, 0, 0, 0)"></rect></pattern><clipPath id="SvgjsClipPath1416"><circle r="39" cx="342.73" cy="37.71"></circle></clipPath><pattern x="0" y="0" width="6" height="6" patternUnits="userSpaceOnUse" id="SvgjsPattern1419"><path d="M3 1L3 5M1 3L5 3" stroke="rgba(97, 42, 17, 1)" fill="none" stroke-width="1"></path></pattern><clipPath id="SvgjsClipPath1418"><circle r="54" cx="178.4" cy="365.68"></circle></clipPath><pattern x="0" y="0" width="6" height="6" patternUnits="userSpaceOnUse" id="SvgjsPattern1421"><path d="M3 1L3 5M1 3L5 3" stroke="rgba(97, 42, 17, 1)" fill="none" stroke-width="1.89"></path></pattern><clipPath id="SvgjsClipPath1420"><circle r="15" cx="1247.34" cy="42.86"></circle></clipPath><pattern x="0" y="0" width="8.86" height="8.86" patternUnits="userSpaceOnUse" id="SvgjsPattern1423"><path d="M4.43 1L4.43 7.859999999999999M1 4.43L7.859999999999999 4.43" stroke="rgba(97, 42, 17, 1)" fill="none" stroke-width="1.15"></path></pattern><clipPath id="SvgjsClipPath1422"><circle r="22.15" cx="321.63" cy="466.89"></circle></clipPath><pattern x="0" y="0" width="8.96" height="8.96" patternUnits="userSpaceOnUse" id="SvgjsPattern1425"><path d="M0 8.96L4.48 0L8.96 8.96" stroke="rgba(97, 42, 17, 1)" fill="none"></path></pattern><clipPath id="SvgjsClipPath1424"><circle r="58.24000000000001" cx="1388.25" cy="208.84"></circle></clipPath><pattern x="0" y="0" width="139.8" height="13.98" patternUnits="userSpaceOnUse" id="SvgjsPattern1427"><rect width="139.8" height="6.99" x="0" y="0" fill="rgba(45, 66, 74, 1)"></rect><rect width="139.8" height="6.99" x="0" y="6.99" fill="rgba(0, 0, 0, 0)"></rect></pattern><clipPath id="SvgjsClipPath1426"><circle r="34.95" cx="39.3" cy="412"></circle></clipPath><pattern x="0" y="0" width="288" height="6" patternUnits="userSpaceOnUse" id="SvgjsPattern1429"><rect width="288" height="3" x="0" y="0" fill="rgba(95, 100, 104, 1)"></rect><rect width="288" height="3" x="0" y="3" fill="rgba(0, 0, 0, 0)"></rect></pattern><clipPath id="SvgjsClipPath1428"><circle r="72" cx="150.1" cy="159.95"></circle></clipPath></defs></svg>